<mxfile modified="2019-11-28T08:10:22.647Z" host="www.draw.io" agent="Mozilla/5.0 (Windows NT 6.1; Win64; x64) AppleWebKit/537.36 (KHTML, like Gecko) Chrome/62.0.3202.62 Safari/537.36" etag="HtqwErpJbCg5qRl_vnuR" version="12.3.2" type="github" pages="1">
  <diagram id="lmylEwVXW4dUe1iDYgF4" name="Page-1">
    <mxGraphModel dx="2577" dy="800" grid="1" gridSize="10" guides="1" tooltips="1" connect="1" arrows="1" fold="1" page="1" pageScale="1" pageWidth="1169" pageHeight="827" math="0" shadow="0">
      <root>
        <mxCell id="0"/>
        <mxCell id="1" parent="0"/>
        <mxCell id="8WVetyxjnFmJZu-GaIHK-5" style="edgeStyle=orthogonalEdgeStyle;rounded=0;orthogonalLoop=1;jettySize=auto;html=1;" parent="1" source="8WVetyxjnFmJZu-GaIHK-1" target="8WVetyxjnFmJZu-GaIHK-4" edge="1">
          <mxGeometry relative="1" as="geometry">
            <Array as="points">
              <mxPoint x="354" y="211"/>
            </Array>
          </mxGeometry>
        </mxCell>
        <mxCell id="8WVetyxjnFmJZu-GaIHK-18" value="insert inference info" style="text;html=1;resizable=0;points=[];align=center;verticalAlign=middle;labelBackgroundColor=#ffffff;fontSize=16;" parent="8WVetyxjnFmJZu-GaIHK-5" vertex="1" connectable="0">
          <mxGeometry x="0.2598" y="-2" relative="1" as="geometry">
            <mxPoint y="1" as="offset"/>
          </mxGeometry>
        </mxCell>
        <mxCell id="8WVetyxjnFmJZu-GaIHK-29" style="edgeStyle=orthogonalEdgeStyle;rounded=0;orthogonalLoop=1;jettySize=auto;html=1;startArrow=none;startFill=0;endArrow=blockThin;endFill=1;fontSize=16;" parent="1" source="8WVetyxjnFmJZu-GaIHK-1" target="8WVetyxjnFmJZu-GaIHK-2" edge="1">
          <mxGeometry relative="1" as="geometry">
            <Array as="points">
              <mxPoint x="594" y="445"/>
            </Array>
          </mxGeometry>
        </mxCell>
        <mxCell id="8WVetyxjnFmJZu-GaIHK-30" value="store defect image&lt;br&gt;" style="text;html=1;resizable=0;points=[];align=center;verticalAlign=middle;labelBackgroundColor=#ffffff;fontSize=16;" parent="8WVetyxjnFmJZu-GaIHK-29" vertex="1" connectable="0">
          <mxGeometry x="-0.2812" relative="1" as="geometry">
            <mxPoint as="offset"/>
          </mxGeometry>
        </mxCell>
        <mxCell id="8WVetyxjnFmJZu-GaIHK-37" style="edgeStyle=orthogonalEdgeStyle;rounded=0;orthogonalLoop=1;jettySize=auto;html=1;entryX=0.75;entryY=0;entryDx=0;entryDy=0;startArrow=blockThin;startFill=1;endArrow=none;endFill=0;fontSize=16;" parent="1" source="8WVetyxjnFmJZu-GaIHK-1" target="8WVetyxjnFmJZu-GaIHK-4" edge="1">
          <mxGeometry relative="1" as="geometry">
            <Array as="points">
              <mxPoint x="452" y="230"/>
            </Array>
          </mxGeometry>
        </mxCell>
        <mxCell id="8WVetyxjnFmJZu-GaIHK-38" value="get model info" style="text;html=1;resizable=0;points=[];align=center;verticalAlign=middle;labelBackgroundColor=#ffffff;fontSize=16;" parent="8WVetyxjnFmJZu-GaIHK-37" vertex="1" connectable="0">
          <mxGeometry x="0.3837" y="-1" relative="1" as="geometry">
            <mxPoint as="offset"/>
          </mxGeometry>
        </mxCell>
        <mxCell id="8WVetyxjnFmJZu-GaIHK-39" style="edgeStyle=orthogonalEdgeStyle;rounded=0;orthogonalLoop=1;jettySize=auto;html=1;startArrow=blockThin;startFill=1;endArrow=none;endFill=0;fontSize=16;exitX=0.959;exitY=0.917;exitDx=0;exitDy=0;exitPerimeter=0;" parent="1" source="8WVetyxjnFmJZu-GaIHK-1" target="8WVetyxjnFmJZu-GaIHK-2" edge="1">
          <mxGeometry relative="1" as="geometry">
            <Array as="points">
              <mxPoint x="670" y="278"/>
              <mxPoint x="670" y="311"/>
              <mxPoint x="783" y="311"/>
            </Array>
          </mxGeometry>
        </mxCell>
        <mxCell id="8WVetyxjnFmJZu-GaIHK-40" value="get model file" style="text;html=1;resizable=0;points=[];align=center;verticalAlign=middle;labelBackgroundColor=#ffffff;fontSize=16;" parent="8WVetyxjnFmJZu-GaIHK-39" vertex="1" connectable="0">
          <mxGeometry x="0.0321" y="-52" relative="1" as="geometry">
            <mxPoint x="36.5" y="-22.5" as="offset"/>
          </mxGeometry>
        </mxCell>
        <mxCell id="8WVetyxjnFmJZu-GaIHK-47" style="edgeStyle=orthogonalEdgeStyle;rounded=0;orthogonalLoop=1;jettySize=auto;html=1;startArrow=none;startFill=0;endArrow=blockThin;endFill=1;fontSize=16;" parent="1" source="8WVetyxjnFmJZu-GaIHK-1" target="8WVetyxjnFmJZu-GaIHK-3" edge="1">
          <mxGeometry relative="1" as="geometry">
            <Array as="points">
              <mxPoint x="920" y="260"/>
              <mxPoint x="920" y="711"/>
            </Array>
          </mxGeometry>
        </mxCell>
        <mxCell id="8WVetyxjnFmJZu-GaIHK-49" value="send request" style="text;html=1;resizable=0;points=[];align=center;verticalAlign=middle;labelBackgroundColor=#ffffff;fontSize=16;" parent="8WVetyxjnFmJZu-GaIHK-47" vertex="1" connectable="0">
          <mxGeometry x="0.0082" y="1" relative="1" as="geometry">
            <mxPoint y="-1" as="offset"/>
          </mxGeometry>
        </mxCell>
        <mxCell id="8WVetyxjnFmJZu-GaIHK-1" value="INFERENCE SERVER&lt;br style=&quot;font-size: 16px;&quot;&gt;" style="points=[];aspect=fixed;html=1;align=center;shadow=0;dashed=0;image;image=img/lib/allied_telesis/computer_and_terminals/Server_Desktop.svg;fontSize=16;whiteSpace=wrap;" parent="1" vertex="1">
          <mxGeometry x="517.5" y="130" width="127" height="161" as="geometry"/>
        </mxCell>
        <mxCell id="8WVetyxjnFmJZu-GaIHK-33" style="edgeStyle=orthogonalEdgeStyle;rounded=0;orthogonalLoop=1;jettySize=auto;html=1;startArrow=none;startFill=0;endArrow=blockThin;endFill=1;fontSize=16;entryX=0.996;entryY=0.559;entryDx=0;entryDy=0;entryPerimeter=0;" parent="1" source="8WVetyxjnFmJZu-GaIHK-2" target="8WVetyxjnFmJZu-GaIHK-3" edge="1">
          <mxGeometry relative="1" as="geometry">
            <mxPoint x="734" y="710" as="targetPoint"/>
            <Array as="points">
              <mxPoint x="804" y="691"/>
            </Array>
          </mxGeometry>
        </mxCell>
        <mxCell id="8WVetyxjnFmJZu-GaIHK-34" value="get defect image for&lt;br&gt;training model&lt;br&gt;" style="text;html=1;resizable=0;points=[];align=center;verticalAlign=middle;labelBackgroundColor=#ffffff;fontSize=16;" parent="8WVetyxjnFmJZu-GaIHK-33" vertex="1" connectable="0">
          <mxGeometry x="-0.1587" y="2" relative="1" as="geometry">
            <mxPoint y="1" as="offset"/>
          </mxGeometry>
        </mxCell>
        <mxCell id="8WVetyxjnFmJZu-GaIHK-2" value="storage server&lt;br style=&quot;font-size: 16px&quot;&gt;" style="points=[];aspect=fixed;html=1;align=center;shadow=0;dashed=0;image;image=img/lib/allied_telesis/storage/Datacenter_Server_Rack_Storage_Unit_Small.svg;fontSize=16;whiteSpace=wrap;" parent="1" vertex="1">
          <mxGeometry x="708" y="380" width="150" height="130" as="geometry"/>
        </mxCell>
        <mxCell id="8WVetyxjnFmJZu-GaIHK-3" value="TRAINING SERVER&lt;br style=&quot;font-size: 16px;&quot;&gt;" style="points=[];aspect=fixed;html=1;align=center;shadow=0;dashed=0;image;image=img/lib/allied_telesis/computer_and_terminals/Server_Desktop.svg;fontSize=16;whiteSpace=wrap;" parent="1" vertex="1">
          <mxGeometry x="517.5" y="600" width="127" height="161" as="geometry"/>
        </mxCell>
        <mxCell id="8WVetyxjnFmJZu-GaIHK-31" style="edgeStyle=orthogonalEdgeStyle;rounded=0;orthogonalLoop=1;jettySize=auto;html=1;startArrow=none;startFill=0;endArrow=blockThin;endFill=1;fontSize=16;" parent="1" source="8WVetyxjnFmJZu-GaIHK-4" edge="1">
          <mxGeometry relative="1" as="geometry">
            <mxPoint x="504" y="700" as="targetPoint"/>
            <Array as="points">
              <mxPoint x="409" y="700"/>
            </Array>
          </mxGeometry>
        </mxCell>
        <mxCell id="8WVetyxjnFmJZu-GaIHK-32" value="get defect info for &lt;br&gt;training model" style="text;html=1;resizable=0;points=[];align=center;verticalAlign=middle;labelBackgroundColor=#ffffff;fontSize=16;" parent="8WVetyxjnFmJZu-GaIHK-31" vertex="1" connectable="0">
          <mxGeometry x="-0.137" y="-5" relative="1" as="geometry">
            <mxPoint as="offset"/>
          </mxGeometry>
        </mxCell>
        <mxCell id="8WVetyxjnFmJZu-GaIHK-35" style="edgeStyle=orthogonalEdgeStyle;rounded=0;orthogonalLoop=1;jettySize=auto;html=1;exitX=1;exitY=0.5;exitDx=0;exitDy=0;startArrow=blockThin;startFill=1;endArrow=none;endFill=0;fontSize=16;" parent="1" source="8WVetyxjnFmJZu-GaIHK-4" target="8WVetyxjnFmJZu-GaIHK-3" edge="1">
          <mxGeometry relative="1" as="geometry">
            <Array as="points">
              <mxPoint x="574" y="445"/>
            </Array>
          </mxGeometry>
        </mxCell>
        <mxCell id="8WVetyxjnFmJZu-GaIHK-36" value="insert trained&lt;br&gt;&amp;nbsp;model info" style="text;html=1;resizable=0;points=[];align=center;verticalAlign=middle;labelBackgroundColor=#ffffff;fontSize=16;" parent="8WVetyxjnFmJZu-GaIHK-35" vertex="1" connectable="0">
          <mxGeometry x="0.1397" relative="1" as="geometry">
            <mxPoint as="offset"/>
          </mxGeometry>
        </mxCell>
        <mxCell id="8WVetyxjnFmJZu-GaIHK-43" style="edgeStyle=orthogonalEdgeStyle;rounded=0;orthogonalLoop=1;jettySize=auto;html=1;exitX=0;exitY=0.75;exitDx=0;exitDy=0;entryX=0.511;entryY=-0.009;entryDx=0;entryDy=0;entryPerimeter=0;startArrow=blockThin;startFill=1;endArrow=none;endFill=0;fontSize=16;" parent="1" source="8WVetyxjnFmJZu-GaIHK-4" target="8WVetyxjnFmJZu-GaIHK-42" edge="1">
          <mxGeometry relative="1" as="geometry"/>
        </mxCell>
        <mxCell id="8WVetyxjnFmJZu-GaIHK-44" value="manage model info&lt;br&gt;and control model&amp;nbsp;&lt;br&gt;activation&lt;br&gt;" style="text;html=1;resizable=0;points=[];align=center;verticalAlign=middle;labelBackgroundColor=#ffffff;fontSize=16;" parent="8WVetyxjnFmJZu-GaIHK-43" vertex="1" connectable="0">
          <mxGeometry x="0.1713" relative="1" as="geometry">
            <mxPoint x="-1.5" y="19.5" as="offset"/>
          </mxGeometry>
        </mxCell>
        <mxCell id="8WVetyxjnFmJZu-GaIHK-4" value="OQAADC Database&lt;br style=&quot;font-size: 16px;&quot;&gt;" style="image;html=1;labelBackgroundColor=#ffffff;image=img/lib/clip_art/computers/Database_128x128.png;fontSize=16;whiteSpace=wrap;" parent="1" vertex="1">
          <mxGeometry x="324" y="370" width="170" height="150" as="geometry"/>
        </mxCell>
        <mxCell id="8WVetyxjnFmJZu-GaIHK-9" style="edgeStyle=orthogonalEdgeStyle;rounded=0;orthogonalLoop=1;jettySize=auto;html=1;exitX=1;exitY=0.25;exitDx=0;exitDy=0;entryX=0.705;entryY=-0.006;entryDx=0;entryDy=0;entryPerimeter=0;" parent="1" source="8WVetyxjnFmJZu-GaIHK-7" target="8WVetyxjnFmJZu-GaIHK-1" edge="1">
          <mxGeometry relative="1" as="geometry"/>
        </mxCell>
        <mxCell id="8WVetyxjnFmJZu-GaIHK-10" value="get defect info for inference" style="text;html=1;resizable=0;points=[];align=center;verticalAlign=middle;labelBackgroundColor=#ffffff;fontSize=16;" parent="8WVetyxjnFmJZu-GaIHK-9" vertex="1" connectable="0">
          <mxGeometry x="0.0102" y="1" relative="1" as="geometry">
            <mxPoint as="offset"/>
          </mxGeometry>
        </mxCell>
        <mxCell id="8WVetyxjnFmJZu-GaIHK-20" style="edgeStyle=orthogonalEdgeStyle;rounded=0;orthogonalLoop=1;jettySize=auto;html=1;exitX=1;exitY=0.5;exitDx=0;exitDy=0;fontSize=16;entryX=0.035;entryY=0.286;entryDx=0;entryDy=0;entryPerimeter=0;verticalAlign=bottom;startArrow=blockThin;startFill=1;endArrow=none;endFill=0;" parent="1" source="8WVetyxjnFmJZu-GaIHK-7" target="8WVetyxjnFmJZu-GaIHK-1" edge="1">
          <mxGeometry relative="1" as="geometry">
            <mxPoint x="504" y="150" as="targetPoint"/>
          </mxGeometry>
        </mxCell>
        <mxCell id="8WVetyxjnFmJZu-GaIHK-21" value="insert inference data" style="text;html=1;resizable=0;points=[];align=center;verticalAlign=middle;labelBackgroundColor=#ffffff;fontSize=16;" parent="8WVetyxjnFmJZu-GaIHK-20" vertex="1" connectable="0">
          <mxGeometry x="0.0282" y="-3" relative="1" as="geometry">
            <mxPoint as="offset"/>
          </mxGeometry>
        </mxCell>
        <mxCell id="8WVetyxjnFmJZu-GaIHK-25" style="edgeStyle=orthogonalEdgeStyle;rounded=0;orthogonalLoop=1;jettySize=auto;html=1;entryX=-0.023;entryY=0.568;entryDx=0;entryDy=0;entryPerimeter=0;startArrow=none;startFill=0;endArrow=blockThin;endFill=1;fontSize=16;" parent="1" source="8WVetyxjnFmJZu-GaIHK-7" target="8WVetyxjnFmJZu-GaIHK-23" edge="1">
          <mxGeometry relative="1" as="geometry">
            <Array as="points">
              <mxPoint x="40" y="115"/>
              <mxPoint x="40" y="735"/>
            </Array>
          </mxGeometry>
        </mxCell>
        <mxCell id="8WVetyxjnFmJZu-GaIHK-26" value="get defect info&lt;br&gt;" style="text;html=1;resizable=0;points=[];align=center;verticalAlign=middle;labelBackgroundColor=#ffffff;fontSize=16;" parent="8WVetyxjnFmJZu-GaIHK-25" vertex="1" connectable="0">
          <mxGeometry x="0.1631" relative="1" as="geometry">
            <mxPoint as="offset"/>
          </mxGeometry>
        </mxCell>
        <mxCell id="8WVetyxjnFmJZu-GaIHK-27" style="edgeStyle=orthogonalEdgeStyle;rounded=0;orthogonalLoop=1;jettySize=auto;html=1;startArrow=none;startFill=0;endArrow=blockThin;endFill=1;fontSize=16;entryX=0;entryY=0.5;entryDx=0;entryDy=0;" parent="1" source="8WVetyxjnFmJZu-GaIHK-7" target="8WVetyxjnFmJZu-GaIHK-4" edge="1">
          <mxGeometry relative="1" as="geometry">
            <mxPoint x="179" y="420" as="targetPoint"/>
            <Array as="points">
              <mxPoint x="194" y="445"/>
            </Array>
          </mxGeometry>
        </mxCell>
        <mxCell id="8WVetyxjnFmJZu-GaIHK-28" value="repeatly copy defect info&lt;br&gt;" style="text;html=1;resizable=0;points=[];align=center;verticalAlign=middle;labelBackgroundColor=#ffffff;fontSize=16;" parent="8WVetyxjnFmJZu-GaIHK-27" vertex="1" connectable="0">
          <mxGeometry x="-0.2928" relative="1" as="geometry">
            <mxPoint y="1" as="offset"/>
          </mxGeometry>
        </mxCell>
        <mxCell id="8WVetyxjnFmJZu-GaIHK-7" value="FAB12A/12I/8C Dcs Production DB" style="image;html=1;labelBackgroundColor=#ffffff;image=img/lib/clip_art/computers/Database_128x128.png;whiteSpace=wrap;fontSize=16;" parent="1" vertex="1">
          <mxGeometry x="94" y="40" width="170" height="150" as="geometry"/>
        </mxCell>
        <mxCell id="8WVetyxjnFmJZu-GaIHK-13" style="edgeStyle=orthogonalEdgeStyle;rounded=0;orthogonalLoop=1;jettySize=auto;html=1;fontSize=16;" parent="1" source="8WVetyxjnFmJZu-GaIHK-11" target="8WVetyxjnFmJZu-GaIHK-1" edge="1">
          <mxGeometry relative="1" as="geometry">
            <Array as="points">
              <mxPoint x="734" y="105"/>
              <mxPoint x="734" y="211"/>
            </Array>
          </mxGeometry>
        </mxCell>
        <mxCell id="8WVetyxjnFmJZu-GaIHK-15" value="get defect image" style="text;html=1;resizable=0;points=[];align=center;verticalAlign=middle;labelBackgroundColor=#ffffff;fontSize=16;" parent="8WVetyxjnFmJZu-GaIHK-13" vertex="1" connectable="0">
          <mxGeometry x="-0.0713" y="1" relative="1" as="geometry">
            <mxPoint as="offset"/>
          </mxGeometry>
        </mxCell>
        <mxCell id="8WVetyxjnFmJZu-GaIHK-11" value="FAB12A/12I/8C Defect image production server&lt;br style=&quot;font-size: 16px&quot;&gt;" style="points=[];aspect=fixed;html=1;align=center;shadow=0;dashed=0;image;image=img/lib/allied_telesis/storage/Datacenter_Server_Rack_Storage_Unit_Small.svg;fontSize=16;whiteSpace=wrap;" parent="1" vertex="1">
          <mxGeometry x="784" y="40" width="150" height="130" as="geometry"/>
        </mxCell>
        <mxCell id="8WVetyxjnFmJZu-GaIHK-14" style="edgeStyle=orthogonalEdgeStyle;rounded=0;orthogonalLoop=1;jettySize=auto;html=1;entryX=0.98;entryY=0.236;entryDx=0;entryDy=0;entryPerimeter=0;fontSize=16;" parent="1" source="8WVetyxjnFmJZu-GaIHK-12" target="8WVetyxjnFmJZu-GaIHK-1" edge="1">
          <mxGeometry relative="1" as="geometry">
            <Array as="points">
              <mxPoint x="1079" y="20"/>
              <mxPoint x="694" y="20"/>
              <mxPoint x="694" y="110"/>
              <mxPoint x="642" y="110"/>
            </Array>
          </mxGeometry>
        </mxCell>
        <mxCell id="8WVetyxjnFmJZu-GaIHK-16" value="get defect image&lt;br&gt;" style="text;html=1;resizable=0;points=[];align=center;verticalAlign=middle;labelBackgroundColor=#ffffff;fontSize=16;" parent="8WVetyxjnFmJZu-GaIHK-14" vertex="1" connectable="0">
          <mxGeometry x="-0.2066" y="-2" relative="1" as="geometry">
            <mxPoint as="offset"/>
          </mxGeometry>
        </mxCell>
        <mxCell id="8WVetyxjnFmJZu-GaIHK-12" value="FAB12A/12I/8C Defect image backup server&lt;br style=&quot;font-size: 16px&quot;&gt;" style="points=[];aspect=fixed;html=1;align=center;shadow=0;dashed=0;image;image=img/lib/allied_telesis/storage/Datacenter_Server_Rack_Storage_Unit_Small.svg;fontSize=16;whiteSpace=wrap;" parent="1" vertex="1">
          <mxGeometry x="1004" y="40" width="150" height="130" as="geometry"/>
        </mxCell>
        <mxCell id="8WVetyxjnFmJZu-GaIHK-23" value="IT DCS UI&lt;br&gt;" style="points=[];aspect=fixed;html=1;align=center;shadow=0;dashed=0;image;image=img/lib/allied_telesis/computer_and_terminals/Personal_Computer_with_Server.svg;fontSize=16;whiteSpace=wrap;" parent="1" vertex="1">
          <mxGeometry x="70" y="660" width="132" height="132" as="geometry"/>
        </mxCell>
        <mxCell id="8WVetyxjnFmJZu-GaIHK-45" style="edgeStyle=orthogonalEdgeStyle;rounded=0;orthogonalLoop=1;jettySize=auto;html=1;startArrow=none;startFill=0;endArrow=blockThin;endFill=1;fontSize=16;" parent="1" edge="1">
          <mxGeometry relative="1" as="geometry">
            <mxPoint x="352" y="735.8235294117646" as="sourcePoint"/>
            <mxPoint x="517.5" y="735.8235294117646" as="targetPoint"/>
            <Array as="points">
              <mxPoint x="460" y="736"/>
              <mxPoint x="460" y="736"/>
            </Array>
          </mxGeometry>
        </mxCell>
        <mxCell id="8WVetyxjnFmJZu-GaIHK-46" value="send request" style="text;html=1;resizable=0;points=[];align=center;verticalAlign=middle;labelBackgroundColor=#ffffff;fontSize=16;" parent="8WVetyxjnFmJZu-GaIHK-45" vertex="1" connectable="0">
          <mxGeometry x="0.305" y="31" relative="1" as="geometry">
            <mxPoint x="-31" y="27" as="offset"/>
          </mxGeometry>
        </mxCell>
        <mxCell id="8WVetyxjnFmJZu-GaIHK-42" value="OQAADC UI&lt;br&gt;" style="points=[];aspect=fixed;html=1;align=center;shadow=0;dashed=0;image;image=img/lib/allied_telesis/computer_and_terminals/Personal_Computer_with_Server.svg;fontSize=16;whiteSpace=wrap;" parent="1" vertex="1">
          <mxGeometry x="220" y="660" width="132" height="132" as="geometry"/>
        </mxCell>
      </root>
    </mxGraphModel>
  </diagram>
</mxfile>
